<svg width="203" height="39" viewBox="0 0 203 39" fill="none" xmlns="http://www.w3.org/2000/svg">
    <path fill-rule="evenodd" clip-rule="evenodd"
        d="M1.61383 1.62671C1.3603 3.14784 2.88143 5.176 3.89552 6.19009C5.16312 7.71122 6.43073 8.7253 8.20537 9.73939C10.9941 11.514 14.2899 13.0352 17.0786 14.8098C19.8673 16.5845 22.149 18.8661 23.6702 21.9084C24.9378 24.4436 25.9519 27.9929 25.1913 30.7816C25.1913 31.0352 25.1913 31.0352 24.9378 31.2887C24.6842 29.007 22.149 25.4577 20.8814 24.1901C17.0786 20.1338 12.0082 18.6126 7.44481 16.0774C2.12087 13.0352 -0.160822 9.23234 1.61383 1.62671ZM24.4307 35.345C25.6983 26.9788 15.811 22.1619 9.47298 19.3732C6.68425 18.3591 3.89552 17.0915 1.86735 14.8098C1.61383 14.3028 0.346221 13.0352 0.346221 12.0211C-3.20307 25.9647 21.642 24.4436 24.4307 35.345ZM16.0645 34.0774C22.4026 35.5985 23.9237 37.3732 23.9237 37.3732C23.9237 37.3732 23.9237 34.838 21.642 33.3169C19.1068 31.7957 16.3181 30.7816 13.0223 29.7676C7.95185 28.2464 6.93777 25.9647 6.93777 25.9647C7.69833 31.5422 10.7406 32.8098 16.0645 34.0774ZM15.0504 10.7535C26.7124 15.0633 30.5152 27.7394 25.4448 37.3732C27.2195 36.8661 28.7406 35.5985 30.2617 33.3169C33.0504 26.4718 31.7828 19.8802 26.9659 15.3169C29.5011 17.5985 34.0645 21.4014 33.304 30.5281C35.8392 27.7394 36.8533 26.2183 37.1068 23.683C37.6138 19.8802 34.3181 15.0633 31.0223 12.7816C32.2899 12.0211 36.3462 8.21826 36.0927 5.42953C28.2335 10.4999 21.135 6.19009 15.0504 10.7535Z"
        fill="url(#paint0_linear_0_41)" />
    <path
        d="M79.877 18.7395L74.046 31.4156C73.7925 31.9226 73.2854 32.4296 72.7784 32.9367C72.2714 33.1902 71.5108 33.4437 70.7502 33.4437C69.9897 33.4437 69.2291 33.1902 68.7221 32.9367C68.215 32.6832 67.9615 32.1761 67.708 31.4156L59.5953 12.4015H65.1728L71.0038 26.0916L76.5812 13.9226C76.8347 13.162 77.3418 12.655 77.8488 12.4015C78.3559 12.1479 78.8629 11.8944 79.877 11.8944C80.6376 11.8944 81.3981 12.1479 81.6516 12.4015C82.1587 12.655 82.4122 13.162 82.9193 13.9226L88.4967 26.0916L94.5812 12.4015H100.159L91.7925 31.4156C91.539 31.9226 91.0319 32.4296 90.5249 32.9367C90.0178 33.1902 89.2573 33.4437 88.4967 33.4437C87.7362 33.4437 87.2291 33.1902 86.7221 32.9367C86.215 32.6832 85.708 32.1761 85.4545 31.4156L79.877 18.7395ZM103.201 11.1339C102.44 11.1339 101.933 11.1339 101.68 10.6268C101.426 10.3733 101.173 9.86626 101.173 9.35921V7.33104C101.173 6.824 101.426 6.31696 101.68 6.06344C101.933 5.80992 102.44 5.5564 103.201 5.5564H104.976C105.736 5.5564 106.243 5.5564 106.497 6.06344C106.75 6.31696 107.004 6.824 107.004 7.33104V9.61273C107.004 10.1198 106.75 10.6268 106.497 10.8803C106.243 11.1339 105.736 11.3874 104.976 11.3874H103.201V11.1339ZM101.173 27.3592V12.1479H107.004V33.1902C103.961 33.4437 101.173 30.655 101.173 27.3592ZM134.891 33.4437C131.849 33.4437 129.314 30.9085 129.314 27.6127V21.7817C129.314 21.0212 129.314 20.2606 129.06 19.5001C129.06 18.993 128.807 18.486 128.3 18.2325C128.046 17.9789 127.539 17.7254 127.032 17.4719C126.525 17.2184 125.764 17.2184 124.75 17.2184H119.933C119.173 17.2184 118.412 17.2184 117.652 17.4719C117.145 17.7254 116.638 17.9789 116.384 18.2325C116.131 18.486 115.877 18.993 115.623 19.5001C115.37 20.0071 115.37 20.7677 115.37 21.7817V33.4437H109.792V21.5282C109.792 19.7536 110.046 18.486 110.3 17.2184C110.553 15.9508 111.06 15.1902 111.821 14.4296C112.581 13.6691 113.595 13.162 114.863 12.9085C116.131 12.655 117.652 12.4015 119.68 12.4015H125.257C127.285 12.4015 128.807 12.655 130.074 12.9085C131.342 13.162 132.356 13.6691 133.116 14.4296C133.877 15.1902 134.384 15.9508 134.638 17.2184C134.891 18.486 135.145 19.7536 135.145 21.5282V33.4437H134.891ZM162.271 17.7254C150.863 17.7254 146.046 17.7254 145.032 17.7254C144.271 17.7254 143.764 17.7254 143.511 17.9789C143.257 18.2325 143.004 18.486 143.004 18.7395V26.8522C143.004 27.3592 143.257 27.6127 143.511 27.8663C143.764 28.1198 144.271 28.1198 145.032 28.1198C146.046 28.1198 148.328 28.1198 154.666 28.1198C155.426 28.1198 155.933 28.1198 156.187 27.8663C156.44 27.6127 156.694 27.3592 156.694 27.1057V24.824H149.595V20.7677H162.271C162.271 23.5564 162.271 25.8381 162.271 27.8663C162.271 28.6268 162.271 29.3874 162.018 29.8944C161.764 30.4015 161.511 30.9085 161.004 31.4156C160.497 31.9226 159.99 32.1761 159.483 32.4296C159.229 32.6832 158.469 32.9367 157.708 32.9367C156.947 32.9367 155.933 33.1902 154.666 33.1902C153.398 33.1902 152.384 33.1902 150.102 33.1902C147.821 33.1902 146.807 33.1902 145.539 33.1902C144.271 33.1902 143.257 33.1902 142.497 32.9367C141.736 32.9367 140.976 32.6832 140.469 32.4296C139.961 32.1761 139.454 31.9226 138.947 31.4156C138.44 30.9085 138.187 30.4015 137.933 29.8944C137.68 29.3874 137.68 28.6268 137.68 27.6127C137.68 25.5846 137.68 22.5423 137.68 18.2325C137.68 16.4578 138.187 14.9367 139.454 13.9226C140.469 12.9085 142.243 12.4015 144.525 12.4015C148.074 12.4015 153.145 12.4015 162.271 12.4015V17.7254ZM171.145 25.0775V26.0916C171.145 26.8522 171.145 27.3592 171.398 27.6127C171.398 28.1198 171.652 28.3733 171.905 28.6268C172.159 28.8803 172.412 28.8803 172.919 29.1339C173.426 29.1339 173.933 29.1339 174.694 29.1339H177.229C179.764 29.1339 181.539 31.162 181.539 33.4437H174.694C171.398 33.4437 169.116 32.9367 167.595 31.6691C166.074 30.1479 165.314 28.1198 165.314 25.331V20.5141C165.314 18.993 165.567 17.7254 165.821 16.7113C166.074 15.6972 166.581 14.9367 167.342 14.1761C168.102 13.6691 169.116 13.162 170.384 12.9085C171.398 12.655 172.919 12.4015 174.947 12.4015H183.567C185.088 12.4015 186.356 12.655 187.37 12.9085C188.384 13.162 189.145 13.6691 189.652 14.1761C190.159 14.4296 190.666 15.1902 190.919 15.9508C191.173 16.7113 191.173 17.4719 191.173 18.2325V25.0775H171.145ZM185.342 18.486C185.342 17.7254 185.088 17.2184 184.835 17.2184C184.581 16.9648 183.821 16.9648 183.06 16.9648H174.947C174.187 16.9648 173.68 16.9648 173.173 16.9648C172.666 16.9648 172.412 17.2184 171.905 17.4719C171.652 17.7254 171.398 17.9789 171.145 18.486C170.891 18.993 170.891 19.5001 170.891 20.2606V21.2747H185.342V18.486ZM192.947 33.4437V21.0212C192.947 19.5001 193.201 18.2325 193.454 17.2184C193.708 16.2043 194.469 15.1902 195.229 14.4296C195.99 13.6691 197.004 13.162 198.271 12.9085C199.285 12.655 200.807 12.4015 202.581 12.4015H202.835V16.9648C202.074 16.9648 201.06 16.9648 200.553 17.2184C200.046 17.2184 199.539 17.4719 199.285 17.7254C199.032 17.9789 198.778 18.486 198.525 18.993C198.525 19.5001 198.271 20.2606 198.271 21.0212V33.4437H192.947ZM58.0742 28.8803C57.3136 28.8803 56.5531 28.8803 56.046 28.6268C55.539 28.6268 55.2854 28.1198 54.7784 27.8663C54.5249 27.6127 54.2714 27.3592 54.0178 26.8522C54.0178 26.3451 53.7643 25.5846 53.7643 24.824V17.2184H54.0178C56.5531 17.2184 58.5812 15.1902 58.5812 12.655H53.7643V5.5564H48.1869V12.4015H46.1587V16.9648H48.1869V24.824C48.1869 26.3451 48.4404 27.6127 48.6939 28.6268C48.9474 29.6409 49.708 30.655 50.4686 31.162C51.2291 31.9226 52.2432 32.4296 53.5108 32.6832C54.7784 32.9367 56.2995 33.1902 57.8207 33.1902H59.0883V28.6268H58.0742V28.8803Z"
        fill="url(#paint1_linear_0_41)" />
    <defs>
        <linearGradient id="paint0_linear_0_41" x1="0.372543" y1="20.2025" x2="36.9675" y2="18.2845"
            gradientUnits="userSpaceOnUse">
            <stop stop-color="#FAB491" />
            <stop offset="1" stop-color="#ED1C2D" />
        </linearGradient>
        <linearGradient id="paint1_linear_0_41" x1="46.3709" y1="19.4478" x2="202.842" y2="19.4478"
            gradientUnits="userSpaceOnUse">
            <stop stop-color="#ED1C2D" />
            <stop offset="1" stop-color="#FAB491" />
        </linearGradient>
    </defs>
</svg>